<?xml version="1.0" encoding="UTF-8"?>
<svg width="700pt" height="700pt" version="1.1" viewBox="0 0 700 700" xmlns="http://www.w3.org/2000/svg">
 <g>
  <path d="m121.66 400.71c-1.1484 0-2.2969-0.41406-3.2266-1.2383-11.312-10.164-19.125-21.051-23.199-32.348-0.90234-2.5195 0.40625-5.293 2.9102-6.2031 2.5117-0.90234 5.293 0.40625 6.1953 2.9102 3.5273 9.7852 10.445 19.355 20.566 28.434 1.9805 1.7852 2.1484 4.8359 0.37109 6.8398-0.96484 1.0664-2.293 1.6055-3.6172 1.6055z"/>
  <path d="m573.64 406.29c-1.4336 0-2.8633-0.64453-3.8164-1.8672-1.6445-2.1133-1.2656-5.1523 0.83984-6.7969 13.656-10.633 22.73-22 26.977-33.773 0.90234-2.5117 3.668-3.8281 6.1875-2.918 2.5078 0.91016 3.8164 3.6758 2.9102 6.1953-4.8633 13.531-15.008 26.367-30.141 38.137-0.87109 0.6875-1.9141 1.0234-2.957 1.0234z"/>
  <path d="m600.21 376.21c-0.54688 0-1.0938-0.089843-1.625-0.28125-2.5117-0.90234-3.8359-3.668-2.9336-6.1875 1.8008-5.0469 2.7148-10.172 2.7148-15.238 0-31.039-34.824-61.438-93.156-81.348-10.555-3.5977-21.68-8.0156-33.445-12.684-36.477-14.461-77.82-30.871-121.77-30.871-49.027 0-94.18 18.492-134.01 34.805-10.242 4.1914-19.902 8.1484-29.078 11.551-54.199 20.09-85.289 48.719-85.289 78.547 0 5.082 0.91016 10.207 2.7109 15.238 0.91016 2.5117-0.39844 5.2852-2.9258 6.1875-2.5 0.90234-5.2773-0.41406-6.1797-2.9258-2.1758-6.0742-3.2812-12.305-3.2812-18.5 0-34.105 33.391-66.047 91.602-87.625 9.0234-3.3477 18.621-7.2656 28.77-11.43 38.648-15.828 86.742-35.523 137.68-35.523 45.793 0 88.055 16.766 125.34 31.555 11.66 4.6289 22.672 8.9961 33.004 12.516 63.371 21.621 99.707 54.605 99.707 90.512 0 6.1758-1.1055 12.398-3.2812 18.492-0.69141 1.9805-2.5625 3.2109-4.543 3.2109z"/>
  <path d="m118.94 420.22c-1.2031 0-2.4062-0.44922-3.3516-1.3516-15.68-15.07-23.641-31.324-23.641-48.301 0-6.2109 1.1055-12.434 3.2812-18.508 0.90234-2.5117 3.6758-3.8203 6.1953-2.918 2.5117 0.89453 3.8203 3.668 2.9102 6.1875-1.8008 5.0273-2.7109 10.145-2.7109 15.238 0 14.246 6.9492 28.148 20.672 41.32 1.918 1.8555 1.9805 4.9141 0.125 6.8477-0.94141 0.98828-2.207 1.4844-3.4805 1.4844z"/>
  <path d="m573.8 426.62c-1.4062 0-2.8008-0.60938-3.7578-1.7852-1.6797-2.0703-1.3633-5.1172 0.70703-6.8125 18.074-14.699 27.621-31.109 27.621-47.461 0-5.0742-0.91797-10.207-2.7148-15.246-0.90234-2.5117 0.41406-5.2852 2.9258-6.1875 2.5195-0.88281 5.2852 0.42188 6.1875 2.9336 2.1758 6.082 3.2812 12.312 3.2812 18.5 0 19.363-10.785 38.367-31.199 54.977-0.90234 0.73438-1.9805 1.082-3.0508 1.082z"/>
  <path d="m600.21 358.54c-1.9805 0-3.8516-1.2305-4.5586-3.207-10.879-30.359-52.969-57.203-115.49-73.641-21.504-5.6562-45.898-1.5312-71.707 2.8359-18.797 3.1719-38.215 6.4609-58.465 6.4609-20.902 0-40.973-2.8555-60.367-5.6211-28.582-4.0742-55.566-7.9258-78.898-1.168-57.359 16.582-96.133 42.504-106.39 71.129-0.89062 2.5117-3.6484 3.8203-6.1797 2.918-2.5117-0.90234-3.8281-3.668-2.9258-6.1875 11.312-31.586 52.43-59.695 112.8-77.152 25.32-7.3203 53.312-3.3477 82.949 0.88281 19.074 2.7148 38.785 5.5234 59.012 5.5234 19.426 0 38.449-3.2148 56.848-6.3203 26.867-4.543 52.254-8.8477 75.781-2.6602 65.652 17.262 110.16 46.324 122.14 79.738 0.90234 2.5117-0.41406 5.2852-2.9258 6.1875-0.53125 0.18359-1.0859 0.28125-1.625 0.28125z"/>
  <path d="m380.74 411.1h-70.824c-2.6758 0-4.8359-2.1719-4.8359-4.8359 0-2.668 2.1719-4.8359 4.8359-4.8359h70.82c2.6797 0 4.8438 2.1719 4.8438 4.8359 0 2.668-2.1641 4.8359-4.8398 4.8359z"/>
  <path d="m380.74 430.95h-69.539c-2.6758 0-4.8359-2.1719-4.8359-4.8359 0-2.668 2.1719-4.8359 4.8359-4.8359h69.539c2.6797 0 4.8438 2.1719 4.8438 4.8359 0.003906 2.668-2.168 4.8359-4.8438 4.8359z"/>
  <path d="m145.82 440.56h-24.137c-2.668 0-4.8359-2.1719-4.8359-4.8359v-41.559c0-2.6758 2.1758-4.8359 4.8359-4.8359h24.137c2.6758 0 4.8359 2.1719 4.8359 4.8359 0 2.6641-2.1641 4.8359-4.8359 4.8359h-19.301v31.887h19.301c2.6758 0 4.8359 2.1719 4.8359 4.8281 0 2.6758-2.1641 4.8438-4.8359 4.8438z"/>
  <path d="m570.82 440.56h-24.137c-2.6797 0-4.8359-2.1719-4.8359-4.8359 0-2.668 2.1641-4.8281 4.8359-4.8281h19.301l-0.003907-31.895h-19.301c-2.6797 0-4.8359-2.1719-4.8359-4.8359 0-2.668 2.1641-4.8359 4.8359-4.8359h24.137c2.6758 0 4.8281 2.1719 4.8281 4.8359v41.559c0.003906 2.668-2.1523 4.8359-4.8242 4.8359z"/>
  <path d="m352.35 275.7c-21.734 0-72.289-1.8281-72.289-18.719 0-16.898 50.555-18.727 72.289-18.727 21.152 0 70.379 1.8281 70.379 18.727 0 16.891-49.223 18.719-70.379 18.719zm-62.242-18.727c3.5547 3.1992 22.121 9.043 62.242 9.043 39.641 0 57.457-5.9141 60.453-9.043-2.9961-3.1211-20.797-9.0352-60.453-9.0352-40.129 0-58.695 5.8438-62.242 9.0352z"/>
  <path d="m226.39 480.07c-49.426 0-89.648-28.555-89.648-63.664 0-35.105 40.223-63.664 89.648-63.664 49.441 0 89.664 28.559 89.664 63.664-0.007812 35.109-40.223 63.664-89.664 63.664zm0-117.65c-44.094 0-79.969 24.215-79.969 53.984 0 29.766 35.875 53.984 79.969 53.984 44.105 0 79.98-24.219 79.98-53.984 0-29.773-35.875-53.984-79.98-53.984z"/>
  <path d="m465.56 480.07c-49.434 0-89.656-28.555-89.656-63.664 0-35.105 40.223-63.664 89.656-63.664s89.664 28.559 89.664 63.664c-0.007812 35.109-40.23 63.664-89.664 63.664zm0-117.65c-44.105 0-79.977 24.215-79.977 53.984 0 29.766 35.867 53.984 79.977 53.984 44.105 0 79.98-24.219 79.98-53.984 0.003906-29.773-35.871-53.984-79.98-53.984z"/>
  <path d="m230.55 465.34c-39.02 0-69.574-19.543-69.574-44.5 0-24.953 30.555-44.508 69.574-44.508s69.586 19.551 69.586 44.508c0 24.957-30.57 44.5-69.586 44.5zm0-79.332c-32.473 0-59.906 15.945-59.906 34.832 0 18.887 27.434 34.824 59.906 34.824 32.48 0 59.914-15.938 59.914-34.824-0.003907-18.887-27.441-34.832-59.914-34.832z"/>
  <path d="m458.23 465.34c-39.031 0-69.594-19.543-69.594-44.5 0-24.953 30.562-44.508 69.594-44.508 39.02 0 69.586 19.551 69.586 44.508 0 24.957-30.566 44.5-69.586 44.5zm0-79.332c-32.488 0-59.922 15.945-59.922 34.832 0 18.887 27.434 34.824 59.922 34.824 32.473 0 59.906-15.938 59.906-34.824 0-18.887-27.434-34.832-59.906-34.832z"/>
  <path d="m203.27 441.55c-1.043 0-2.1016-0.33594-2.9883-1.0234-2.0938-1.6445-2.4727-4.6914-0.82031-6.7969l25.047-31.961c1.6367-2.1133 4.6914-2.4766 6.7969-0.82422 2.1016 1.6445 2.4727 4.6914 0.82031 6.7891l-25.047 31.969c-0.94531 1.2109-2.375 1.8477-3.8086 1.8477z"/>
  <path d="m224.47 441.55c-1.043 0-2.0938-0.33594-2.9805-1.0234-2.1055-1.6445-2.4766-4.6914-0.82031-6.7969l25.031-31.961c1.6523-2.1133 4.6914-2.4766 6.7969-0.82422 2.1055 1.6523 2.4766 4.6914 0.83203 6.7891l-25.047 31.969c-0.94922 1.2109-2.3789 1.8477-3.8125 1.8477z"/>
  <path d="m435.1 441.55c-1.0352 0-2.0938-0.33594-2.9805-1.0234-2.1055-1.6445-2.4766-4.6914-0.82031-6.7969l25.039-31.961c1.6445-2.1133 4.6836-2.4766 6.7891-0.82422s2.4766 4.6914 0.82422 6.7891l-25.039 31.969c-0.95703 1.2109-2.375 1.8477-3.8125 1.8477z"/>
  <path d="m456.31 441.55c-1.0508 0-2.1016-0.33594-2.9805-1.0234-2.1055-1.6445-2.4766-4.6914-0.82422-6.7969l25.039-31.961c1.6523-2.1133 4.6914-2.4766 6.7969-0.82422 2.1055 1.6523 2.4766 4.6914 0.82422 6.7891l-25.039 31.969c-0.96094 1.2109-2.3828 1.8477-3.8164 1.8477z"/>
 </g>
</svg>
